# xmcd
#
# Track frame offsets: 
#        150
#        15660
#        33715
#        53779
#        67510
#        94688
#        119167
#
# Disc length: 2012 seconds
#
# Revision: 0
# Processed by: cddbd v1.5.1PL2 Copyright (c) Steve Scherf et al.
# Submitted via: ExactAudioCopy v0.95b2
#
DISCID=5607da07
DTITLE=Divine - T-Shirts and Tight Blue Jeans 
DYEAR=2000
DGENRE=Disco
TTITLE0=T Shirts And Tight Blue Jeans 
TTITLE1=Alphabet Rap 
TTITLE2=Shake It Up 
TTITLE3=Jungle Jezebel 
TTITLE4=Native Love (Remix)
TTITLE5=Love Reaction (Remix)
TTITLE6=Shoot Your Shot (Remix)
EXTD=
EXTT0=
EXTT1=
EXTT2=
EXTT3=
EXTT4=
EXTT5=
EXTT6=
PLAYORDER=
